# xmcd
#
# Track frame offsets:
#	150
#	13116
#	29071
#	40473
#	57169
#	72139
#	86329
#	101050
#	114086
#	126218
#	138586
#	159103
#	173181
#	189465
#	203032
#	222275
#	239165
#	255719
#	271897
#	284574
#	306863
#	327421
#
# Disc length: 4592 seconds
#
# Revision: 0
# Processed by: cddbd v1.4PL0 Copyright (c) Steve Scherf et al.
# Submitted via: MusicWizard 6.0.1
#
DISCID=4811ee16
DTITLE=Le Ann Rimes - LeAnn Rimes and Bonus
DYEAR=2002
DGENRE=Country
TTITLE0=Crazy
TTITLE1=Don't Worry
TTITLE2=Leavin On Your Mind
TTITLE3=Faded Love
TTITLE4='Born To Lose' By LeAnn Rimes
TTITLE5=Cryin' Time
TTITLE6=She's Got You
TTITLE7=I Fall To Pieces
TTITLE8=Your Cheatin' Heart
TTITLE9=Love Sick Blues
TTITLE10=Me And Bobby McGee
TTITLE11=Big Deal
TTITLE12=Can't Fight The Moonlight
TTITLE13=But I Do Love You
TTITLE14=Wrtten In The Stars "Duett With Elton John"
TTITLE15=You Are
TTITLE16=You Light Up My Live
TTITLE17=The Rose
TTITLE18=Blue.Mp3
TTITLE19=How Do I Live Without You
TTITLE20=Please Remember
TTITLE21=Right Kind Of Wrong
EXTD=
EXTT0=
EXTT1=
EXTT2=
EXTT3=
EXTT4=
EXTT5=
EXTT6=
EXTT7=
EXTT8=
EXTT9=
EXTT10=
EXTT11=
EXTT12=
EXTT13=
EXTT14=
EXTT15=
EXTT16=
EXTT17=
EXTT18=
EXTT19=
EXTT20=
EXTT21=
PLAYORDER=
